<svg xmlns="http://www.w3.org/2000/svg" version="1.1" xmlns:xlink="http://www.w3.org/1999/xlink" width="512" height="512" x="0" y="0" viewBox="0 0 512 512" style="enable-background:new 0 0 512 512" xml:space="preserve" class=""><g><path d="M256.001 0C153.683 0 70.737 82.947 70.737 185.264 70.737 332.734 256.001 512 256.001 512s185.262-179.266 185.262-326.736C441.263 82.947 358.318 0 256.001 0zm0 320.453c-74.664 0-135.189-60.527-135.189-135.189s60.525-135.19 135.189-135.19c74.662 0 135.189 60.527 135.189 135.189s-60.527 135.19-135.189 135.19zm74.378-179.307h-5.738v-18.85c0-14.469-12.624-21.866-26.509-21.866h-84.264c-13.885 0-26.508 7.397-26.508 21.866v18.85h-5.739c-3.65 0-6.609 2.868-6.609 6.405v32.455c0 3.538 2.959 6.405 6.609 6.405h5.739v52.626h6.933v14.278c0 5.021 4.2 9.091 9.381 9.091h12.789c5.182 0 9.382-4.07 9.382-9.091v-14.278h59.947v14.278c0 5.021 4.2 9.091 9.381 9.091h12.79c5.181 0 9.38-4.07 9.38-9.091v-14.278h7.299v-52.626h5.738c3.65 0 6.609-2.867 6.609-6.405v-32.455c-.001-3.537-2.96-6.405-6.61-6.405zm-122.07 84.955c-6.097 0-11.04-4.79-11.04-10.699 0-5.911 4.943-10.701 11.04-10.701 6.098 0 11.041 4.79 11.041 10.701 0 5.909-4.943 10.699-11.041 10.699zm39.812-38.244H199.02v-56.924h49.101zm15.758 0v-56.924h49.101v56.924zm39.812 38.244c-6.098 0-11.042-4.79-11.042-10.699 0-5.911 4.944-10.701 11.042-10.701 6.097 0 11.04 4.79 11.04 10.701 0 5.909-4.943 10.699-11.04 10.699z" fill="#000000" opacity="1" data-original="#000000" class=""></path></g></svg>